<?xml version="1.0" encoding="UTF-8" standalone="no"?>
<svg
   xmlns:dc="http://purl.org/dc/elements/1.1/"
   xmlns:cc="http://creativecommons.org/ns#"
   xmlns:rdf="http://www.w3.org/1999/02/22-rdf-syntax-ns#"
   xmlns:svg="http://www.w3.org/2000/svg"
   xmlns="http://www.w3.org/2000/svg"
   id="svg8"
   version="1.1"
   viewBox="0 0 112.00932 108.465"
   height="108.465mm"
   width="112.00932mm">
  <defs
     id="defs2" />
  <metadata
     id="metadata5">
    <rdf:RDF>
      <cc:Work
         rdf:about="">
        <dc:format>image/svg+xml</dc:format>
        <dc:type
           rdf:resource="http://purl.org/dc/dcmitype/StillImage" />
        <dc:title></dc:title>
      </cc:Work>
    </rdf:RDF>
  </metadata>
  <g
     transform="translate(-53.228667,-76.140779)"
     id="layer1" />
  <path
     style="opacity:1;fill:#fc4a1a;fill-opacity:1;stroke:#f7fff9;stroke-width:3.01273394;stroke-linecap:butt;stroke-linejoin:miter;stroke-miterlimit:4;stroke-dasharray:none;stroke-opacity:1"
     d="M 55.722043,100.55039 C 31.787047,114.20192 16.3567,87.245773 15.579978,58.322253 c -1.447255,-23.79416 25.157563,-38.03638 42.004265,-27.02595 27.13731,-12.83677 39.03444,7.63311 38.90058,29.13742 -1.26934,15.4589 -9.81411,52.058097 -40.76278,40.116667 z"
     id="path5356" />
  <path
     style="fill:#fc4a1a;fill-opacity:1;stroke:#f7ffff;stroke-width:3.53529191;stroke-linecap:butt;stroke-linejoin:miter;stroke-miterlimit:4;stroke-dasharray:none;stroke-opacity:1"
     d="M 57.584243,31.296303 C 57.399083,15.185323 46.097692,2.264774 27.396589,4.855265 30.408135,18.359873 38.670862,32.737583 57.584243,31.296303 Z"
     id="path5369" />
  <g
     id="g5476"
     transform="matrix(0,0.64764091,-0.65737566,0,163.9282,-2.4248376)"
     style="opacity:1;fill:#f7bf33;fill-opacity:1">
    <path
       id="path5369-3"
       d="m 97.378796,156.32174 c 0.639263,5.08374 4.558594,8.7893 10.177204,7.34804 -1.40831,-4.16618 -4.45219,-8.4333 -10.177204,-7.34804 z"
       style="fill:#f7bf33;fill-opacity:1;stroke:none;stroke-width:0.06012585px;stroke-linecap:butt;stroke-linejoin:miter;stroke-opacity:1" />
    <path
       id="path5369-3-0"
       d="m 110.42336,150.59058 c -4.17804,2.96598 -5.59134,8.17126 -1.6658,12.44164 3.00597,-3.21008 5.3279,-7.90924 1.6658,-12.44164 z"
       style="fill:#f7bf33;fill-opacity:1;stroke:none;stroke-width:0.06012585px;stroke-linecap:butt;stroke-linejoin:miter;stroke-opacity:1" />
    <path
       id="path5369-3-0-2"
       d="m 120.82095,159.41907 c -4.70994,-2.0173 -9.88812,-0.5077 -11.48363,5.06906 4.30678,0.89001 9.52714,0.41963 11.48363,-5.06906 z"
       style="fill:#f7bf33;fill-opacity:1;stroke:none;stroke-width:0.06012585px;stroke-linecap:butt;stroke-linejoin:miter;stroke-opacity:1" />
    <path
       id="path5369-3-0-2-1"
       d="m 114.71867,175.60311 c 1.28244,-4.96068 -0.99228,-9.8513 -6.74609,-10.58581 -0.22901,4.39181 1.02479,9.48116 6.74609,10.58581 z"
       style="fill:#f7bf33;fill-opacity:1;stroke:none;stroke-width:0.06012585px;stroke-linecap:butt;stroke-linejoin:miter;stroke-opacity:1" />
    <path
       id="path5369-3-0-2-1-5"
       d="m 97.413314,172.75711 c 5.076696,0.69293 9.667416,-2.13864 9.723346,-7.93888 -4.38843,0.28667 -9.29602,2.1276 -9.723346,7.93888 z"
       style="fill:#f7bf33;fill-opacity:1;stroke:none;stroke-width:0.06012585px;stroke-linecap:butt;stroke-linejoin:miter;stroke-opacity:1" />
  </g>
  <g
     id="text4528"
     style="font-style:normal;font-variant:normal;font-weight:normal;font-stretch:normal;font-size:14.11111164px;line-height:1.25;font-family:'Varela Round';-inkscape-font-specification:'Varela Round';text-align:center;letter-spacing:0px;word-spacing:0px;text-anchor:middle;fill:#000000;fill-opacity:1;stroke:none;stroke-width:0.26458335"
     aria-label="GAME">
    <path
       id="path4542"
       style="font-style:normal;font-variant:normal;font-weight:normal;font-stretch:normal;font-family:'Varela Round';-inkscape-font-specification:'Varela Round';text-align:center;text-anchor:middle;fill:#ffffff;fill-opacity:1;stroke:#ffffff;stroke-width:0.26458335;stroke-opacity:1"
       d="m 39.778978,59.298387 q -1.453445,0 -2.582334,-0.635 -1.128888,-0.649111 -1.749777,-1.792111 -0.620889,-1.157111 -0.620889,-2.624667 0,-1.495778 0.649111,-2.652889 0.649111,-1.157111 1.763889,-1.792111 1.128889,-0.635 2.497667,-0.635 1.100666,0 1.919111,0.268111 0.832555,0.268111 1.594555,0.747889 0.112889,0.05645 0.197556,0.197556 0.08467,0.141111 0.08467,0.310444 0,0.239889 -0.169334,0.409222 -0.155222,0.169334 -0.423333,0.169334 -0.155222,0 -0.296333,-0.07056 -0.663223,-0.395111 -1.326445,-0.592667 -0.663222,-0.197555 -1.439333,-0.197555 -1.072445,0 -1.933223,0.451556 -0.860777,0.451555 -1.354666,1.326444 -0.479778,0.860778 -0.479778,2.060222 0,1.100667 0.451555,1.975556 0.465667,0.860778 1.326445,1.368778 0.874889,0.493889 2.060222,0.493889 1.326445,0 2.469445,-0.620889 v -2.554111 h -2.328334 q -0.239889,0 -0.409222,-0.169334 -0.169333,-0.169333 -0.169333,-0.409222 0,-0.239889 0.169333,-0.409222 0.169333,-0.169334 0.409222,-0.169334 h 2.779889 q 0.282223,0 0.479778,0.197556 0.197556,0.197556 0.197556,0.479778 v 3.203222 q 0,0.296333 -0.155222,0.536222 -0.141112,0.225778 -0.381001,0.338667 -1.580444,0.790222 -3.231444,0.790222 z" />
    <path
       id="path4544"
       style="font-style:normal;font-variant:normal;font-weight:normal;font-stretch:normal;font-family:'Varela Round';-inkscape-font-specification:'Varela Round';text-align:center;text-anchor:middle;fill:#ffffff;fill-opacity:1;stroke:#ffffff;stroke-width:0.26458335;stroke-opacity:1"
       d="m 46.083999,59.227832 q -0.282222,0 -0.465667,-0.183445 -0.169333,-0.183444 -0.169333,-0.451555 0,-0.112889 0.07056,-0.282223 l 3.598333,-8.494889 q 0.112889,-0.254 0.310444,-0.409222 0.211667,-0.169333 0.508,-0.169333 h 0.141112 q 0.296333,0 0.493889,0.169333 0.211666,0.155222 0.324555,0.409222 l 3.598334,8.494889 q 0.07055,0.169334 0.07055,0.282223 0,0.268111 -0.183444,0.451555 -0.169334,0.183445 -0.451556,0.183445 -0.197555,0 -0.366889,-0.09878 -0.155222,-0.112889 -0.239889,-0.296333 l -0.917222,-2.201334 h -4.797778 l -0.917222,2.201334 q -0.08467,0.183444 -0.254,0.296333 -0.155222,0.09878 -0.352778,0.09878 z m 2.017889,-3.767667 h 3.81 l -1.905,-4.586111 z" />
    <path
       id="path4546"
       style="font-style:normal;font-variant:normal;font-weight:normal;font-stretch:normal;font-family:'Varela Round';-inkscape-font-specification:'Varela Round';text-align:center;text-anchor:middle;fill:#ffffff;fill-opacity:1;stroke:#ffffff;stroke-width:0.26458335;stroke-opacity:1"
       d="m 57.275435,59.227832 q -0.268111,0 -0.451556,-0.183445 -0.183444,-0.183444 -0.183444,-0.451555 v -8.424334 q 0,-0.381 0.268111,-0.649111 0.268111,-0.282222 0.649111,-0.282222 h 0.465667 q 0.282222,0 0.508,0.169333 0.239889,0.169333 0.352777,0.423333 l 3.203223,7.98689 3.203222,-7.98689 q 0.112889,-0.254 0.338667,-0.423333 0.239889,-0.169333 0.522111,-0.169333 h 0.465667 q 0.381,0 0.649111,0.282222 0.268111,0.268111 0.268111,0.649111 v 8.424334 q 0,0.268111 -0.183445,0.451555 -0.183444,0.183445 -0.451555,0.183445 -0.268111,0 -0.465667,-0.183445 -0.183444,-0.183444 -0.183444,-0.451555 V 50.57772 l -3.259667,8.057445 q -0.112889,0.268111 -0.366889,0.437444 -0.239889,0.155223 -0.536222,0.155223 -0.296334,0 -0.550334,-0.155223 -0.239888,-0.169333 -0.352777,-0.437444 L 57.924546,50.57772 v 8.015112 q 0,0.268111 -0.197556,0.451555 -0.183444,0.183445 -0.451555,0.183445 z" />
    <path
       id="path4548"
       style="font-style:normal;font-variant:normal;font-weight:normal;font-stretch:normal;font-family:'Varela Round';-inkscape-font-specification:'Varela Round';text-align:center;text-anchor:middle;fill:#ffffff;fill-opacity:1;stroke:#ffffff;stroke-width:0.26458335;stroke-opacity:1"
       d="m 70.918013,59.157276 q -0.268111,0 -0.451556,-0.183444 -0.183444,-0.183445 -0.183444,-0.451556 v -8.565445 q 0,-0.268111 0.183444,-0.451555 0.183445,-0.197556 0.451556,-0.197556 h 5.658556 q 0.254,0 0.423333,0.183445 0.183444,0.169333 0.183444,0.423333 0,0.254 -0.183444,0.423333 -0.169333,0.169334 -0.423333,0.169334 h -5.009445 v 3.118555 h 4.501445 q 0.254,0 0.423333,0.183445 0.183444,0.169333 0.183444,0.423333 0,0.254 -0.183444,0.423334 -0.169333,0.169333 -0.423333,0.169333 h -4.501445 v 3.132667 h 5.009445 q 0.254,0 0.423333,0.183444 0.183444,0.169333 0.183444,0.423333 0,0.254 -0.183444,0.423334 -0.169333,0.169333 -0.423333,0.169333 z" />
  </g>
  <g
     id="text4540"
     style="font-style:normal;font-variant:normal;font-weight:normal;font-stretch:normal;font-size:19.75555611px;line-height:1.25;font-family:Wingdings;-inkscape-font-specification:Wingdings;letter-spacing:0px;word-spacing:0px;fill:#000000;fill-opacity:1;stroke:none;stroke-width:0.26458335"
     aria-label="OVER">
    <path
       id="path4551"
       style="font-style:normal;font-variant:normal;font-weight:normal;font-stretch:normal;font-family:'Varela Round';-inkscape-font-specification:'Varela Round';fill:#ffffff;fill-opacity:1;stroke:#ffffff;stroke-width:0.26458335;stroke-opacity:1"
       d="m 36.04306,85.137268 q -2.074333,0 -3.635022,-0.908755 -1.560689,-0.908756 -2.410178,-2.508956 -0.849489,-1.6002 -0.889,-3.674534 0.03951,-2.074333 0.889,-3.674533 0.849489,-1.6002 2.410178,-2.508956 1.560689,-0.908755 3.635022,-0.908755 2.074334,0 3.615267,0.908755 1.560689,0.908756 2.410178,2.528712 0.869244,1.6002 0.908756,3.654777 -0.03951,2.054578 -0.908756,3.674534 -0.849489,1.6002 -2.410178,2.508956 -1.540933,0.908755 -3.615267,0.908755 z m 0,-1.679222 q 1.580445,0 2.746023,-0.7112 1.165577,-0.7112 1.778,-1.936045 0.612422,-1.224844 0.612422,-2.765778 0,-1.540933 -0.612422,-2.765777 -0.612423,-1.224845 -1.778,-1.936045 -1.165578,-0.7112 -2.746023,-0.7112 -1.6002,0 -2.765778,0.7112 -1.145822,0.7112 -1.758244,1.936045 -0.612422,1.224844 -0.612422,2.765777 0,1.540934 0.612422,2.765778 0.612422,1.224845 1.758244,1.936045 1.165578,0.7112 2.765778,0.7112 z" />
    <path
       id="path4553"
       style="font-style:normal;font-variant:normal;font-weight:normal;font-stretch:normal;font-family:'Varela Round';-inkscape-font-specification:'Varela Round';fill:#ffffff;fill-opacity:1;stroke:#ffffff;stroke-width:0.26458335;stroke-opacity:1"
       d="m 50.441465,85.03849 q -0.809978,0 -1.224844,-0.908755 L 44.336998,72.296157 q -0.05927,-0.158045 -0.05927,-0.335845 0,-0.414867 0.237066,-0.651933 0.237067,-0.256822 0.651934,-0.256822 0.276578,0 0.493889,0.1778 0.237066,0.158044 0.3556,0.434622 l 4.642555,11.576756 4.642556,-11.576756 q 0.118533,-0.276578 0.335845,-0.434622 0.237066,-0.1778 0.513644,-0.1778 0.414867,0 0.651933,0.256822 0.237067,0.237066 0.237067,0.651933 0,0.1778 -0.05927,0.335845 l -4.879622,11.833578 q -0.414867,0.908755 -1.224845,0.908755 z" />
    <path
       id="path4555"
       style="font-style:normal;font-variant:normal;font-weight:normal;font-stretch:normal;font-family:'Varela Round';-inkscape-font-specification:'Varela Round';fill:#ffffff;fill-opacity:1;stroke:#ffffff;stroke-width:0.26458335;stroke-opacity:1"
       d="m 60.306588,84.939713 q -0.375356,0 -0.632178,-0.256823 -0.256822,-0.256822 -0.256822,-0.632178 V 72.05909 q 0,-0.375356 0.256822,-0.632178 0.256822,-0.276578 0.632178,-0.276578 h 7.921978 q 0.3556,0 0.592667,0.256823 0.256822,0.237066 0.256822,0.592666 0,0.3556 -0.256822,0.592667 -0.237067,0.237067 -0.592667,0.237067 h -7.013223 v 4.365978 h 6.302023 q 0.3556,0 0.592667,0.256822 0.256822,0.237066 0.256822,0.592666 0,0.3556 -0.256822,0.592667 -0.237067,0.237067 -0.592667,0.237067 h -6.302023 v 4.385733 h 7.013223 q 0.3556,0 0.592667,0.256822 0.256822,0.237067 0.256822,0.592667 0,0.3556 -0.256822,0.592667 -0.237067,0.237067 -0.592667,0.237067 z" />
    <path
       id="path4557"
       style="font-style:normal;font-variant:normal;font-weight:normal;font-stretch:normal;font-family:'Varela Round';-inkscape-font-specification:'Varela Round';fill:#ffffff;fill-opacity:1;stroke:#ffffff;stroke-width:0.26458335;stroke-opacity:1"
       d="m 72.923907,85.03849 q -0.375356,0 -0.632178,-0.256822 -0.256822,-0.256822 -0.256822,-0.632178 v -12.0904 q 0,-0.375356 0.256822,-0.632178 0.256822,-0.276578 0.632178,-0.276578 h 4.603045 q 2.686755,0 4.030133,1.106312 1.343378,1.106311 1.343378,2.904066 0,1.185334 -0.671689,2.173111 -0.651933,0.968023 -1.916289,1.402645 1.4224,0.375355 1.936044,1.778 0.5334,1.382889 0.5334,2.726267 v 0.908755 q 0,0.375356 -0.256822,0.632178 -0.256822,0.256822 -0.632178,0.256822 -0.414866,0 -0.671688,-0.237066 -0.237067,-0.256823 -0.237067,-0.651934 v -0.592666 q 0,-0.987778 -0.1778,-1.817512 -0.1778,-0.849488 -0.849489,-1.501422 -0.671689,-0.671689 -2.034822,-0.671689 h -4.0894 v 4.583289 q 0,0.375356 -0.276578,0.632178 -0.256822,0.256822 -0.632178,0.256822 z m 4.484511,-7.171267 q 1.698978,0 2.686756,-0.671688 1.007533,-0.671689 1.007533,-1.896534 0,-1.185333 -0.869244,-1.817511 -0.849489,-0.632178 -2.923823,-0.632178 h -3.476977 v 5.017911 z" />
  </g>
</svg>
